<?xml version="1.0" encoding="UTF-8" standalone="no"?>
<svg
   xmlns:dc="http://purl.org/dc/elements/1.1/"
   xmlns:cc="http://creativecommons.org/ns#"
   xmlns:rdf="http://www.w3.org/1999/02/22-rdf-syntax-ns#"
   xmlns:svg="http://www.w3.org/2000/svg"
   xmlns="http://www.w3.org/2000/svg"
   xmlns:xlink="http://www.w3.org/1999/xlink"
   xmlns:sodipodi="http://sodipodi.sourceforge.net/DTD/sodipodi-0.dtd"
   xmlns:inkscape="http://www.inkscape.org/namespaces/inkscape"
   width="440"
   height="440"
   id="svg2"
   version="1.1"
   inkscape:version="0.91 r13725"
   sodipodi:docname="logo.svg">
  <sodipodi:namedview
     pagecolor="#ffffff"
     bordercolor="#666666"
     borderopacity="1"
     objecttolerance="10"
     gridtolerance="10"
     guidetolerance="10"
     inkscape:pageopacity="0"
     inkscape:pageshadow="2"
     inkscape:window-width="1920"
     inkscape:window-height="981"
     id="namedview52"
     showgrid="false"
     inkscape:zoom="1.7728337"
     inkscape:cx="161.88771"
     inkscape:cy="245.65192"
     inkscape:window-x="0"
     inkscape:window-y="0"
     inkscape:window-maximized="1"
     inkscape:current-layer="imagebot_185" />
  <defs
     id="defs4">
    <linearGradient
       id="imagebot_174">
      <stop
         stop-color="#e5e5e5"
         id="imagebot_184"
         offset="0" />
      <stop
         stop-color="#dfdfdf"
         id="imagebot_183"
         offset="1" />
    </linearGradient>
    <linearGradient
       id="imagebot_180">
      <stop
         stop-color="#000000"
         id="imagebot_182"
         offset="0" />
      <stop
         stop-color="#000000"
         stop-opacity="0"
         id="imagebot_181"
         offset="1" />
    </linearGradient>
    <radialGradient
       gradientUnits="userSpaceOnUse"
       gradientTransform="matrix(1,0,0,0.651376,0,10.75754)"
       r="15.57143"
       fy="30.85714"
       fx="22.57143"
       cy="30.85714"
       cx="22.57143"
       id="imagebot_171"
       xlink:href="#imagebot_180" />
    <linearGradient
       id="imagebot_173">
      <stop
         stop-color="#ffffff"
         id="imagebot_179"
         offset="0" />
      <stop
         stop-color="#ffffff"
         stop-opacity="0"
         id="imagebot_178"
         offset="1" />
    </linearGradient>
    <linearGradient
       id="imagebot_175">
      <stop
         stop-color="#e5e5e5"
         offset="0"
         id="imagebot_177" />
      <stop
         stop-color="#c8c8c8"
         offset="1"
         id="imagebot_176" />
    </linearGradient>
    <linearGradient
       y2="39.341251"
       x2="30.693501"
       y1="23.020853"
       x1="21.690254"
       id="imagebot_169"
       xlink:href="#imagebot_175"
       gradientTransform="scale(0.89308922,1.119709)"
       gradientUnits="userSpaceOnUse" />
    <linearGradient
       y2="57.419529"
       x2="49.165462"
       y1="32.032185"
       x1="17.988613"
       id="imagebot_167"
       xlink:href="#imagebot_175"
       gradientTransform="scale(0.8867329,1.1277353)"
       gradientUnits="userSpaceOnUse" />
    <linearGradient
       y2="23.588106"
       x2="34.790604"
       y1="23.588106"
       x1="8.7936287"
       id="imagebot_164"
       xlink:href="#imagebot_173"
       gradientTransform="scale(1.1721175,0.85315677)"
       gradientUnits="userSpaceOnUse" />
    <linearGradient
       y2="14.636988"
       x2="39.411091"
       y1="4.6363764"
       x1="12.93811"
       id="imagebot_160"
       xlink:href="#imagebot_173"
       gradientTransform="scale(1.0984718,0.91035565)"
       gradientUnits="userSpaceOnUse" />
    <linearGradient
       y2="30.5592"
       x2="52.520142"
       y1="13.753278"
       x1="35.445358"
       id="imagebot_157"
       xlink:href="#imagebot_175"
       gradientTransform="scale(0.89308927,1.1197089)"
       gradientUnits="userSpaceOnUse" />
    <linearGradient
       y2="34.04425"
       x2="51.204536"
       y1="5.8957591"
       x1="34.478092"
       id="imagebot_155"
       xlink:href="#imagebot_174"
       gradientTransform="scale(0.88673233,1.127736)"
       gradientUnits="userSpaceOnUse" />
    <linearGradient
       y2="44.767521"
       x2="30.389996"
       y1="8.1438293"
       x1="24.038851"
       id="imagebot_151"
       xlink:href="#imagebot_173"
       gradientTransform="scale(1.1079772,0.90254563)"
       gradientUnits="userSpaceOnUse" />
  </defs>
  <metadata
     id="imagebot_3">image/svg+xmlWicker Border 4 (A4 size)Arvin61r58Openclipart.orghttps://openclipart.org/https://openclipart.org/user-detail/Arvin61r58frameborderwickerwoodpatterntextureWicker framee/border
sized for A4 (210x297mm) paper<rdf:RDF>
  <cc:Work
     rdf:about="">
    <dc:format>image/svg+xml</dc:format>
    <dc:type
       rdf:resource="http://purl.org/dc/dcmitype/StillImage" />
    <dc:title></dc:title>
  </cc:Work>
</rdf:RDF>
</metadata>
  <g
     id="imagebot_1"
     transform="matrix(1.753579,0,0,1.753579,-254.14538,-145.15169)">
    <title
       id="title30" />
    <metadata
       id="imagebot_37">image/svg+xmlAudio CardAudio Card Devicehttp://jimmac.musichall.czJakub Steinersoundaudiocarddevice</metadata>
    <g
       transform="matrix(1.70992,0,0,1.70992,145.397,86.403)"
       id="imagebot_185">
      <metadata
         id="imagebot_172">image/svg+xmlGamesAndreas NilssongamesJakub Steiner</metadata>
      <g
         transform="matrix(2.96528,0,0,2.96528,1.4828225,-1.6895182)"
         id="imagebot_147"
         label="Layer 1"
         style="image-rendering:auto">
        <path
           stroke-miterlimit="4"
           transform="matrix(1.408115,0,0,0.492958,-7.856805,28.28872)"
           d="m 38.14286,30.85714 a 15.57143,10.14286 0 1 1 -31.14286,0 15.57143,10.14286 0 1 1 31.14286,0 z"
           id="imagebot_170"
           style="opacity:0.38636002;fill:url(#imagebot_171);fill-rule:nonzero;stroke-linecap:round;stroke-linejoin:round;stroke-miterlimit:4;stroke-dashoffset:0;marker-start:none;marker-mid:none;marker-end:none"
           inkscape:connector-curvature="0" />
        <g
           transform="matrix(0.98028,-0.197617,0.197617,0.98028,-10.72835,1.085105)"
           id="imagebot_161">
          <g
             id="imagebot_165"
             transform="matrix(0.965364,0.260908,-0.260908,0.965364,11.34921,-0.522676)">
            <rect
               stroke-miterlimit="4"
               id="imagebot_168"
               width="30.930361"
               height="39.032631"
               x="-1.98053"
               y="8.2107296"
               ry="2.8284299"
               rx="3.0304599"
               transform="matrix(0.965384,-0.260833,0.260833,0.965384,0,0)"
               style="fill:url(#imagebot_169);fill-rule:nonzero;stroke:#888a85;stroke-width:1;stroke-linecap:round;stroke-miterlimit:4;stroke-dashoffset:0" />
            <rect
               stroke-miterlimit="4"
               id="imagebot_166"
               width="28.99733"
               height="37.150211"
               x="-1.01305"
               y="9.1018801"
               ry="1.94455"
               rx="2.2349801"
               transform="matrix(0.965376,-0.260864,0.260803,0.965392,0,0)"
               style="fill:url(#imagebot_167);fill-rule:nonzero;stroke:#ffffff;stroke-width:1;stroke-linecap:round;stroke-miterlimit:4;stroke-dashoffset:0" />
          </g>
          <path
             id="imagebot_163"
             d="m 10.307166,30.04202 c 12.8505,4.16736 19.23701,-5.74169 30.47151,0 l -1.87997,-19.20535 c 0,0 -0.61079,-2.1547201 -2.01527,-1.8968601 l -24.45744,0.23073 c -1.59455,-0.14112 -1.80269,0.9659201 -1.76983,2.1447101 l -0.349,18.72677 z"
             style="opacity:0.51648003;fill:url(#imagebot_164);fill-rule:evenodd;stroke-width:0.25pt"
             inkscape:connector-curvature="0" />
          <path
             stroke-miterlimit="4"
             d="m 17.6875,12.28125 c -3.55272,3.34939 -4.98231,4.27319 -5,6.15625 -0.01719,1.83053 2.29353,3.4309 4.3125,2.28125 0.06419,0.93674 0.09453,2.55606 -0.46875,3.21875 0.08839,0 2.46875,0.03125 2.46875,0.03125 0,0 -0.61244,-2.02997 -0.6875,-3.375 2.20939,1.39187 4.35718,-0.11922 4.375,-2.25 0.01935,-2.23418 -1.28137,-2.9466 -5,-6.0625 z"
             id="imagebot_162"
             inkscape:connector-curvature="0"
             style="fill:#000000;fill-rule:evenodd;stroke-width:1;stroke-miterlimit:4" />
        </g>
        <g
           transform="translate(-1,0.25)"
           id="imagebot_148">
          <g
             transform="translate(0,-1.875)"
             id="imagebot_149">
            <g
               transform="translate(2.5,2.75)"
               id="imagebot_152">
              <g
                 id="imagebot_158"
                 transform="translate(0.176776,7.24784)">
                <path
                   id="imagebot_159"
                   d="m 11.24905,13.68551 c 11.01846,7.81637 20.07381,0.26802 29.07973,9.10401 L 45.50453,4.77809 44.31062,2.25339 19.5069,-5.59962 l -2.71711,1.3052 -5.54074,17.97993 z"
                   style="opacity:0.51648003;fill:url(#imagebot_160);fill-rule:evenodd;stroke-width:0.25pt"
                   inkscape:connector-curvature="0" />
              </g>
              <rect
                 stroke-miterlimit="4"
                 id="imagebot_156"
                 width="30.93037"
                 height="39.032639"
                 x="16.600031"
                 y="-3.9797399"
                 ry="2.8284299"
                 rx="3.0304599"
                 transform="matrix(0.966464,0.256804,-0.256804,0.966464,0,0)"
                 style="fill:url(#imagebot_157);fill-rule:nonzero;stroke:#888a85;stroke-width:1;stroke-linecap:round;stroke-miterlimit:4;stroke-dashoffset:0" />
              <rect
                 stroke-miterlimit="4"
                 id="imagebot_154"
                 width="28.99733"
                 height="37.150261"
                 x="17.567141"
                 y="-3.0880001"
                 ry="1.94455"
                 rx="2.2349701"
                 transform="matrix(0.966472,0.256773,-0.256834,0.966456,0,0)"
                 style="fill:url(#imagebot_155);fill-rule:nonzero;stroke:#ffffff;stroke-width:1;stroke-linecap:round;stroke-miterlimit:4;stroke-dashoffset:0" />
              <path
                 stroke-miterlimit="4"
                 d="m 28.21921,18.57943 c 3.79745,-2.22996 7.15204,1.66212 6.3551,4.5284 -0.72855,2.62029 -3.0384,3.34974 -9.24649,6.69421 -4.02285,-5.73672 -5.58202,-7.22884 -4.71991,-10.33833 0.89147,-3.21904 5.05269,-4.69923 7.6113,-0.88428 z"
                 id="imagebot_153"
                 inkscape:connector-curvature="0"
                 style="fill:#cc0000;fill-rule:evenodd;stroke-width:1;stroke-miterlimit:4" />
            </g>
            <path
               id="imagebot_150"
               d="m 15.40872,24.6661 c 11.46985,7.13756 17.57857,-1.91549 27.10103,6.36123 l 4.52192,-17.23017 c 0.26517,-0.97227 -0.01819,-1.74099 -1.4324,-2.09454 L 22.57675,5.27155 C 21.25092,4.918 20.12008,5.85438 19.94331,6.73826 L 15.40872,24.6661 Z"
               style="opacity:0.51648003;fill:url(#imagebot_151);fill-rule:evenodd;stroke-width:0.25pt"
               inkscape:connector-curvature="0" />
          </g>
        </g>
      </g>
    </g>
  </g>
</svg>
